<svg width="20" height="20" viewBox="0 0 20 20" fill="none" xmlns="http://www.w3.org/2000/svg">
<path d="M5.49191 9.88211C5.5971 10.0771 5.79714 10.1987 6.01471 10.1987H9.40258V16.8881C9.40258 17.2259 9.67036 17.5 10.0003 17.5C10.3302 17.5 10.598 17.2259 10.598 16.8881V10.1987H13.9859C14.2043 10.1987 14.4043 10.0771 14.5087 9.88211C14.6147 9.68711 14.6075 9.44887 14.492 9.2604L10.5064 2.78556C10.3964 2.6077 10.2059 2.5 10.0003 2.5C9.79469 2.5 9.60422 2.6077 9.49424 2.78556L5.50864 9.2604C5.44807 9.35994 5.41699 9.47335 5.41699 9.58676C5.41699 9.68792 5.44249 9.78991 5.49191 9.88211" fill="#11CABE"/>
</svg>
